<svg width="2104" height="881" xmlns="http://www.w3.org/2000/svg" xmlns:xlink="http://www.w3.org/1999/xlink" xml:space="preserve" overflow="hidden"><defs><clipPath id="clip0"><rect x="1027" y="520" width="2104" height="881"/></clipPath><linearGradient x1="952.637" y1="-71.5906" x2="84.363" y2="951.591" gradientUnits="userSpaceOnUse" spreadMethod="reflect" id="fill1"><stop offset="0" stop-color="#B4E5A2"/><stop offset="0.7" stop-color="#8ED973"/><stop offset="0.94" stop-color="#3B7D23"/><stop offset="1" stop-color="#275317"/></linearGradient><linearGradient x1="1979.64" y1="448.41" x2="1111.36" y2="1471.59" gradientUnits="userSpaceOnUse" spreadMethod="reflect" id="fill2"><stop offset="0" stop-color="#B4E5A2"/><stop offset="0.7" stop-color="#8ED973"/><stop offset="0.94" stop-color="#3B7D23"/><stop offset="1" stop-color="#275317"/></linearGradient><linearGradient x1="2103.2" y1="1198.2" x2="2055.8" y2="1465.8" gradientUnits="userSpaceOnUse" spreadMethod="reflect" id="fill3"><stop offset="0" stop-color="#B4E5A2"/><stop offset="0.7" stop-color="#8ED973"/><stop offset="0.94" stop-color="#3B7D23"/><stop offset="1" stop-color="#275317"/></linearGradient></defs><g clip-path="url(#clip0)" transform="translate(-1027 -520)"><path d="M487.337 0C612.096 0 736.855 47.5995 832.042 142.798L831.636 143.204 832.192 143.709C843.219 154.738 853.721 166.292 863.655 178.332L872.998 190.827 878.127 196.75 882.33 203.308 891.718 215.864 916.135 256.061 916.136 256.062 916.137 256.063 936.664 298.681 942.096 313.524 945.393 320.821 947.55 328.425 953.057 343.474 965.068 390.192 965.069 390.197 965.627 393.85 966.63 400.425 966.73 400.718 966.674 400.718 972.457 438.606 972.715 443.722 973.542 446.386C981.383 464.928 997.112 479.321 1016.52 485.358L1037 488.455 974.973 488.455 974.969 488.455 900.156 488.455 879.678 485.358C860.268 479.321 844.54 464.928 836.698 446.386L834.198 438.331 834.24 438.606 834.25 438.787 831.434 419.946C829.31 409.222 826.697 398.673 823.619 388.325L801.127 332.222 791.234 315.334 769.752 281.356 755.22 263.662 730.378 236.649 712.487 220.75 683.781 199.017 663.513 186.048 630.453 169.38 605.224 158.419 596.531 155.449 548.459 143.299 540.879 142.215 487.487 137.797C396.712 137.797 313.994 172.296 251.725 228.898L244.052 237.24 217.261 266.374 206.374 279.534 181.986 318.108 172.841 334.732 170.293 341.089 156.74 374.894 148.487 399.93 144.901 414.438 138.104 463.589 137.858 468.471 137.4 477.539 139.748 533.727C148.022 596.389 173.221 657.242 215.344 708.895L239.399 735.511 239.079 735.831 272.19 768.946C291.34 788.098 291.34 819.151 272.19 838.305L244.862 865.635C225.711 884.788 194.662 884.788 175.511 865.635L140.836 830.956 141.147 830.645 109.167 795.261C40.8446 711.482 4.54783 610.289 0.277945 508.009L0.3357 488.455 0 488.455 0.356997 481.384 0.408255 464.156 2.20515 444.777 2.31344 442.636 2.51703 438.606 2.94622 435.793 3.18121 434.252 4.46048 420.454 9.26207 394.404 9.90387 390.197 10.1522 389.232 10.3757 388.363 12.4346 377.191 17.6686 359.997 21.9165 343.474 26.5625 330.778 31.7486 313.742 36.7797 302.861 38.3091 298.681 48.3534 277.828 59.886 252.884 75.0214 229.419 83.2551 215.864 86.964 210.904 96.8473 195.581 108.247 182.439 111.318 178.332 122.125 166.44 142.632 142.798C237.82 47.5995 362.579 0 487.337 0Z" fill="url(#fill1)" fill-rule="evenodd" transform="matrix(-1 0 0 1 3131 520)"/><path d="M1604 805C1716.11 805 1807 896.11 1807 1008.5 1807 1120.89 1716.11 1212 1604 1212 1491.89 1212 1401 1120.89 1401 1008.5 1401 896.11 1491.89 805 1604 805ZM1690.4 900.046C1660.53 900.046 1636.31 924.324 1636.31 954.273 1636.31 984.222 1660.53 1008.5 1690.4 1008.5 1720.28 1008.5 1744.49 984.222 1744.49 954.273 1744.49 924.324 1720.28 900.046 1690.4 900.046Z" fill-rule="evenodd"/><path d="M2733.5 805C2845.89 805 2937 896.11 2937 1008.5 2937 1120.89 2845.89 1212 2733.5 1212 2621.11 1212 2530 1120.89 2530 1008.5 2530 896.11 2621.11 805 2733.5 805ZM2820.11 900.046C2790.16 900.046 2765.89 924.324 2765.89 954.273 2765.89 984.222 2790.16 1008.5 2820.11 1008.5 2850.06 1008.5 2874.34 984.222 2874.34 954.273 2874.34 924.324 2850.06 900.046 2820.11 900.046Z" fill-rule="evenodd"/><path d="M1514.34 520C1639.1 520 1763.85 567.6 1859.04 662.798L1858.64 663.204 1859.19 663.709C1870.22 674.738 1880.72 686.292 1890.66 698.332L1900 710.827 1905.13 716.75 1909.33 723.308 1918.72 735.865 1943.14 776.061 1943.14 776.063 1943.14 776.063 1963.66 818.681 1969.1 833.524 1972.39 840.821 1974.55 848.426 1980.06 863.474 1992.07 910.192 1992.07 910.198 1992.63 913.85 1993.63 920.425 1993.73 920.718 1993.67 920.718 1999.46 958.606 1999.72 963.722 2000.54 966.386C2008.38 984.928 2024.11 999.321 2043.52 1005.36L2064 1008.45 2001.97 1008.45 2001.97 1008.45 1927.16 1008.45 1906.68 1005.36C1887.27 999.321 1871.54 984.928 1863.7 966.386L1861.2 958.331 1861.24 958.606 1861.25 958.787 1858.43 939.946C1856.31 929.222 1853.7 918.673 1850.62 908.325L1828.13 852.222 1818.23 835.335 1796.75 801.356 1782.22 783.662 1757.38 756.649 1739.49 740.75 1710.78 719.017 1690.51 706.048 1657.45 689.38 1632.22 678.42 1623.53 675.449 1575.46 663.299 1567.88 662.215 1514.49 657.798C1423.71 657.798 1340.99 692.296 1278.72 748.898L1271.05 757.241 1244.26 786.374 1233.37 799.534 1208.99 838.109 1199.84 854.732 1197.29 861.089 1183.74 894.894 1175.49 919.93 1171.9 934.438 1165.1 983.589 1164.86 988.471 1164.4 997.539 1166.75 1053.73C1175.02 1116.39 1200.22 1177.24 1242.34 1228.89L1266.4 1255.51 1266.08 1255.83 1299.19 1288.95C1318.34 1308.1 1318.34 1339.15 1299.19 1358.3L1271.86 1385.64C1252.71 1404.79 1221.66 1404.79 1202.51 1385.64L1167.84 1350.96 1168.15 1350.65 1136.17 1315.26C1067.84 1231.48 1031.55 1130.29 1027.28 1028.01L1027.34 1008.45 1027 1008.45 1027.36 1001.38 1027.41 984.156 1029.21 964.778 1029.31 962.636 1029.52 958.606 1029.95 955.793 1030.18 954.252 1031.46 940.454 1036.26 914.404 1036.9 910.198 1037.15 909.233 1037.38 908.363 1039.43 897.191 1044.67 879.997 1048.92 863.474 1053.56 850.779 1058.75 833.742 1063.78 822.861 1065.31 818.681 1075.35 797.828 1086.89 772.884 1102.02 749.419 1110.26 735.865 1113.96 730.904 1123.85 715.582 1135.25 702.439 1138.32 698.332 1149.12 686.44 1169.63 662.798C1264.82 567.6 1389.58 520 1514.34 520Z" fill="url(#fill2)" fill-rule="evenodd"/><path d="M1690 1313.56C1690 1285.63 1712.63 1263 1740.56 1263L2418.44 1263C2446.37 1263 2469 1285.63 2469 1313.56L2469 1350.44C2469 1378.36 2446.37 1401 2418.44 1401L1740.56 1401C1712.63 1401 1690 1378.36 1690 1350.44Z" fill="url(#fill3)" fill-rule="evenodd"/></g></svg>